<mxfile host="app.diagrams.net" modified="2023-12-10T18:19:20.499Z" agent="Mozilla/5.0 (Windows NT 10.0; Win64; x64) AppleWebKit/537.36 (KHTML, like Gecko) Chrome/119.0.0.0 Safari/537.36 OPR/105.0.0.0" etag="_5k2bX584oSf2OLnZqY6" version="22.1.7" type="github">
  <diagram id="C5RBs43oDa-KdzZeNtuy" name="Page-1">
    <mxGraphModel dx="1220" dy="651" grid="1" gridSize="10" guides="1" tooltips="1" connect="1" arrows="1" fold="1" page="1" pageScale="1" pageWidth="827" pageHeight="1169" math="0" shadow="0">
      <root>
        <mxCell id="WIyWlLk6GJQsqaUBKTNV-0" />
        <mxCell id="WIyWlLk6GJQsqaUBKTNV-1" parent="WIyWlLk6GJQsqaUBKTNV-0" />
        <mxCell id="cvi8j9ng1oROin3-kFft-3" value="" style="edgeStyle=orthogonalEdgeStyle;rounded=0;orthogonalLoop=1;jettySize=auto;html=1;" edge="1" parent="WIyWlLk6GJQsqaUBKTNV-1" source="cvi8j9ng1oROin3-kFft-0" target="cvi8j9ng1oROin3-kFft-2">
          <mxGeometry relative="1" as="geometry" />
        </mxCell>
        <mxCell id="cvi8j9ng1oROin3-kFft-0" value="Начало" style="ellipse;whiteSpace=wrap;html=1;aspect=fixed;" vertex="1" parent="WIyWlLk6GJQsqaUBKTNV-1">
          <mxGeometry x="360" y="80" width="80" height="80" as="geometry" />
        </mxCell>
        <mxCell id="cvi8j9ng1oROin3-kFft-5" value="" style="edgeStyle=orthogonalEdgeStyle;rounded=0;orthogonalLoop=1;jettySize=auto;html=1;" edge="1" parent="WIyWlLk6GJQsqaUBKTNV-1" source="cvi8j9ng1oROin3-kFft-2" target="cvi8j9ng1oROin3-kFft-4">
          <mxGeometry relative="1" as="geometry">
            <mxPoint x="400" y="300" as="targetPoint" />
          </mxGeometry>
        </mxCell>
        <mxCell id="cvi8j9ng1oROin3-kFft-2" value="Объявление A, B и C" style="rounded=1;whiteSpace=wrap;html=1;" vertex="1" parent="WIyWlLk6GJQsqaUBKTNV-1">
          <mxGeometry x="340" y="200" width="120" height="60" as="geometry" />
        </mxCell>
        <mxCell id="cvi8j9ng1oROin3-kFft-9" value="" style="edgeStyle=orthogonalEdgeStyle;rounded=0;orthogonalLoop=1;jettySize=auto;html=1;" edge="1" parent="WIyWlLk6GJQsqaUBKTNV-1" source="cvi8j9ng1oROin3-kFft-4" target="cvi8j9ng1oROin3-kFft-8">
          <mxGeometry relative="1" as="geometry" />
        </mxCell>
        <mxCell id="cvi8j9ng1oROin3-kFft-11" value="" style="edgeStyle=orthogonalEdgeStyle;rounded=0;orthogonalLoop=1;jettySize=auto;html=1;" edge="1" parent="WIyWlLk6GJQsqaUBKTNV-1" source="cvi8j9ng1oROin3-kFft-4" target="cvi8j9ng1oROin3-kFft-10">
          <mxGeometry relative="1" as="geometry" />
        </mxCell>
        <mxCell id="cvi8j9ng1oROin3-kFft-4" value="A &amp;gt; B &amp;amp;&amp;amp; A &amp;gt; C" style="rhombus;whiteSpace=wrap;html=1;rounded=1;" vertex="1" parent="WIyWlLk6GJQsqaUBKTNV-1">
          <mxGeometry x="355" y="300" width="90" height="90" as="geometry" />
        </mxCell>
        <mxCell id="cvi8j9ng1oROin3-kFft-8" value="Напечатать A" style="whiteSpace=wrap;html=1;rounded=1;" vertex="1" parent="WIyWlLk6GJQsqaUBKTNV-1">
          <mxGeometry x="200" y="400" width="120" height="60" as="geometry" />
        </mxCell>
        <mxCell id="cvi8j9ng1oROin3-kFft-15" value="" style="edgeStyle=orthogonalEdgeStyle;rounded=0;orthogonalLoop=1;jettySize=auto;html=1;" edge="1" parent="WIyWlLk6GJQsqaUBKTNV-1" source="cvi8j9ng1oROin3-kFft-10" target="cvi8j9ng1oROin3-kFft-14">
          <mxGeometry relative="1" as="geometry" />
        </mxCell>
        <mxCell id="cvi8j9ng1oROin3-kFft-17" value="" style="edgeStyle=orthogonalEdgeStyle;rounded=0;orthogonalLoop=1;jettySize=auto;html=1;" edge="1" parent="WIyWlLk6GJQsqaUBKTNV-1" source="cvi8j9ng1oROin3-kFft-10" target="cvi8j9ng1oROin3-kFft-16">
          <mxGeometry relative="1" as="geometry" />
        </mxCell>
        <mxCell id="cvi8j9ng1oROin3-kFft-10" value="B &amp;gt; A &amp;amp;&amp;amp; B &amp;gt; C" style="rhombus;whiteSpace=wrap;html=1;rounded=1;" vertex="1" parent="WIyWlLk6GJQsqaUBKTNV-1">
          <mxGeometry x="500" y="400" width="90" height="90" as="geometry" />
        </mxCell>
        <mxCell id="cvi8j9ng1oROin3-kFft-12" value="true" style="text;html=1;align=center;verticalAlign=middle;resizable=0;points=[];autosize=1;strokeColor=none;fillColor=none;" vertex="1" parent="WIyWlLk6GJQsqaUBKTNV-1">
          <mxGeometry x="270" y="308" width="40" height="30" as="geometry" />
        </mxCell>
        <mxCell id="cvi8j9ng1oROin3-kFft-13" value="false" style="text;html=1;align=center;verticalAlign=middle;resizable=0;points=[];autosize=1;strokeColor=none;fillColor=none;" vertex="1" parent="WIyWlLk6GJQsqaUBKTNV-1">
          <mxGeometry x="465" y="308" width="50" height="30" as="geometry" />
        </mxCell>
        <mxCell id="cvi8j9ng1oROin3-kFft-14" value="Напечатать C" style="whiteSpace=wrap;html=1;rounded=1;" vertex="1" parent="WIyWlLk6GJQsqaUBKTNV-1">
          <mxGeometry x="655" y="525" width="120" height="60" as="geometry" />
        </mxCell>
        <mxCell id="cvi8j9ng1oROin3-kFft-21" value="" style="edgeStyle=orthogonalEdgeStyle;rounded=0;orthogonalLoop=1;jettySize=auto;html=1;" edge="1" parent="WIyWlLk6GJQsqaUBKTNV-1" source="cvi8j9ng1oROin3-kFft-16" target="cvi8j9ng1oROin3-kFft-20">
          <mxGeometry relative="1" as="geometry" />
        </mxCell>
        <mxCell id="cvi8j9ng1oROin3-kFft-16" value="Напечатать B" style="whiteSpace=wrap;html=1;rounded=1;" vertex="1" parent="WIyWlLk6GJQsqaUBKTNV-1">
          <mxGeometry x="325" y="525" width="120" height="60" as="geometry" />
        </mxCell>
        <mxCell id="cvi8j9ng1oROin3-kFft-20" value="Конец" style="ellipse;whiteSpace=wrap;html=1;rounded=1;" vertex="1" parent="WIyWlLk6GJQsqaUBKTNV-1">
          <mxGeometry x="345" y="650" width="80" height="80" as="geometry" />
        </mxCell>
        <mxCell id="cvi8j9ng1oROin3-kFft-28" value="" style="endArrow=classic;html=1;rounded=0;" edge="1" parent="WIyWlLk6GJQsqaUBKTNV-1">
          <mxGeometry width="50" height="50" relative="1" as="geometry">
            <mxPoint x="720" y="690" as="sourcePoint" />
            <mxPoint x="425" y="689.5" as="targetPoint" />
          </mxGeometry>
        </mxCell>
        <mxCell id="cvi8j9ng1oROin3-kFft-30" value="" style="endArrow=none;html=1;rounded=0;" edge="1" parent="WIyWlLk6GJQsqaUBKTNV-1">
          <mxGeometry width="50" height="50" relative="1" as="geometry">
            <mxPoint x="720" y="690" as="sourcePoint" />
            <mxPoint x="720" y="588" as="targetPoint" />
          </mxGeometry>
        </mxCell>
        <mxCell id="cvi8j9ng1oROin3-kFft-31" value="" style="endArrow=none;html=1;rounded=0;" edge="1" parent="WIyWlLk6GJQsqaUBKTNV-1">
          <mxGeometry width="50" height="50" relative="1" as="geometry">
            <mxPoint x="260" y="690" as="sourcePoint" />
            <mxPoint x="260" y="460" as="targetPoint" />
          </mxGeometry>
        </mxCell>
        <mxCell id="cvi8j9ng1oROin3-kFft-32" value="" style="endArrow=classic;html=1;rounded=0;entryX=0;entryY=0.5;entryDx=0;entryDy=0;" edge="1" parent="WIyWlLk6GJQsqaUBKTNV-1" target="cvi8j9ng1oROin3-kFft-20">
          <mxGeometry width="50" height="50" relative="1" as="geometry">
            <mxPoint x="260" y="690" as="sourcePoint" />
            <mxPoint x="310" y="640" as="targetPoint" />
          </mxGeometry>
        </mxCell>
        <mxCell id="cvi8j9ng1oROin3-kFft-33" value="true" style="text;html=1;align=center;verticalAlign=middle;resizable=0;points=[];autosize=1;strokeColor=none;fillColor=none;" vertex="1" parent="WIyWlLk6GJQsqaUBKTNV-1">
          <mxGeometry x="430" y="418" width="40" height="30" as="geometry" />
        </mxCell>
        <mxCell id="cvi8j9ng1oROin3-kFft-34" value="false" style="text;html=1;align=center;verticalAlign=middle;resizable=0;points=[];autosize=1;strokeColor=none;fillColor=none;" vertex="1" parent="WIyWlLk6GJQsqaUBKTNV-1">
          <mxGeometry x="615" y="418" width="50" height="30" as="geometry" />
        </mxCell>
      </root>
    </mxGraphModel>
  </diagram>
</mxfile>
